<?xml version="1.0" standalone="no"?>
<!DOCTYPE svg PUBLIC "-//W3C//DTD SVG 20010904//EN"
 "http://www.w3.org/TR/2001/REC-SVG-20010904/DTD/svg10.dtd">
<svg version="1.0" xmlns="http://www.w3.org/2000/svg"
 width="484.000000pt" height="158.000000pt" viewBox="0 0 484.000000 158.000000"
 preserveAspectRatio="xMidYMid meet">
<metadata>
Created by potrace 1.13, written by Peter Selinger 2001-2015
</metadata>
<g transform="translate(0.000000,158.000000) scale(0.100000,-0.100000)"
fill="#000000" stroke="none">
<path d="M735 1530 c-132 -26 -297 -107 -389 -191 -72 -66 -106 -128 -106
-192 l0 -46 46 19 c25 11 50 20 56 20 6 0 52 40 102 88 74 70 111 97 187 134
87 43 236 88 223 67 -3 -5 31 -9 78 -9 140 0 245 -37 319 -111 22 -22 36 -32
31 -22 -32 58 -124 116 -224 143 -40 10 -68 19 -63 20 22 1 -74 49 -130 64
-86 24 -86 24 -130 16z"/>
<path d="M609 1301 c-83 -42 -138 -82 -195 -143 -47 -50 -101 -134 -92 -144 3
-2 20 1 39 6 18 6 49 10 68 10 26 0 45 11 88 50 108 99 214 157 305 167 102
12 187 5 247 -22 35 -15 47 -18 32 -7 -43 30 -105 51 -157 51 -27 1 -68 9 -90
20 -41 19 -129 41 -167 41 -12 0 -47 -13 -78 -29z"/>
<path d="M583 1074 c-35 -25 -63 -49 -63 -54 0 -5 13 -11 29 -15 15 -3 37 -14
48 -24 18 -18 21 -17 86 32 l67 50 -38 28 c-20 16 -44 28 -52 28 -8 0 -43 -20
-77 -45z"/>
<path d="M1529 975 c-4 -5 -19 -45 -33 -88 -26 -77 -72 -175 -98 -210 -11 -15
-23 -16 -96 -9 l-83 8 -52 -64 c-29 -36 -58 -73 -66 -84 -22 -29 -184 -163
-248 -204 -70 -45 -201 -107 -269 -127 -64 -19 -227 -15 -280 8 -62 26 -114
86 -114 131 0 12 6 9 22 -12 58 -73 125 -104 227 -104 222 1 547 188 709 408
42 57 82 123 82 134 0 2 -33 3 -73 3 l-73 0 -90 -91 c-49 -49 -128 -116 -175
-147 -108 -71 -254 -141 -296 -141 -18 0 -28 -3 -22 -7 6 -3 -38 -5 -98 -4
-84 1 -118 6 -153 22 -58 25 -100 74 -100 115 l0 31 30 -41 c48 -66 96 -85
215 -85 75 1 118 6 170 23 145 46 294 137 403 246 67 67 72 74 60 94 -7 11
-31 29 -52 40 l-39 19 -73 -60 c-130 -106 -255 -171 -395 -204 -73 -17 -169
-20 -169 -5 0 6 -12 10 -27 10 -34 0 -122 40 -145 66 -9 10 -20 33 -24 49 l-7
30 43 -42 c26 -26 64 -49 94 -60 139 -46 394 14 573 135 55 37 153 129 153
144 0 3 -27 -4 -59 -17 -74 -29 -174 -54 -244 -62 -28 -3 -97 -19 -152 -36
-88 -26 -115 -30 -230 -31 -117 -1 -134 2 -173 22 -23 13 -52 37 -62 55 -11
18 -20 27 -20 22 0 -6 11 -27 25 -47 19 -28 25 -50 25 -90 1 -38 7 -64 25 -93
19 -30 25 -54 25 -95 0 -36 7 -66 19 -86 14 -23 17 -43 14 -80 -5 -44 0 -59
42 -139 65 -124 89 -153 153 -183 49 -22 69 -25 157 -25 148 1 260 40 502 174
184 103 284 189 396 341 79 107 141 288 135 395 -2 32 -6 54 -9 48z"/>
</g>
</svg>
